<?xml version="1.0" encoding="UTF-8" standalone="no"?>
<!-- Created with Inkscape (http://www.inkscape.org/) -->

<svg
   width="127.44287mm"
   height="41.871597mm"
   viewBox="0 0 127.44287 41.871597"
   version="1.1"
   id="svg5"
   xml:space="preserve"
   xmlns="http://www.w3.org/2000/svg"
   xmlns:svg="http://www.w3.org/2000/svg"><defs
     id="defs2" /><g
     id="layer1"
     transform="translate(-39.447358,-74.665998)"><g
       aria-label="Farmtrenz"
       id="text113"
       style="font-size:22.5778px;fill:#ffffff;stroke-width:0.765"><path
         d="m 47.473061,90.872189 h -6.173618 v 5.468061 h 5.710596 v 1.664672 h -5.710596 v 7.000438 H 39.447358 V 89.196493 h 8.025703 z"
         style="font-family:Ebrima;-inkscape-font-specification:Ebrima"
         id="path16402" /><path
         d="m 58.309964,105.00536 h -1.807988 v -1.76389 h -0.0441 q -1.179602,2.02848 -3.47266,2.02848 -1.686721,0 -2.645836,-0.89297 -0.948091,-0.89297 -0.948091,-2.37023 0,-3.16398 3.726219,-3.682122 l 3.384465,-0.474046 q 0,-2.877347 -2.326131,-2.877347 -2.039498,0 -3.682122,1.389064 v -1.852085 q 1.664672,-1.058335 3.836463,-1.058335 3.979778,0 3.979778,4.211289 z m -1.807988,-5.710593 -2.723006,0.374827 q -1.256772,0.176389 -1.896183,0.628386 -0.63941,0.44097 -0.63941,1.57648 0,0.82682 0.584289,1.35599 0.595313,0.51814 1.576477,0.51814 1.344967,0 2.215888,-0.93707 0.881945,-0.94809 0.881945,-2.39227 z"
         style="font-family:Ebrima;-inkscape-font-specification:Ebrima"
         id="path16404" /><path
         d="m 67.603462,95.5465 q -0.474046,-0.363803 -1.367015,-0.363803 -1.157554,0 -1.94028,1.091408 -0.771702,1.091407 -0.771702,2.976565 v 5.75469 H 61.716477 V 93.716463 h 1.807988 v 2.326131 h 0.0441 q 0.385851,-1.190626 1.179602,-1.852085 0.793751,-0.672484 1.774915,-0.672484 0.705556,0 1.080383,0.154341 z"
         style="font-family:Ebrima;-inkscape-font-specification:Ebrima"
         id="path16406" /><path
         d="m 85.595149,105.00536 h -1.807988 v -6.482295 q 0,-1.874134 -0.584289,-2.711982 -0.573264,-0.837848 -1.940279,-0.837848 -1.157554,0 -1.973353,1.058335 -0.804775,1.058334 -0.804775,2.535592 v 6.438198 h -1.807988 v -6.702781 q 0,-3.329344 -2.568666,-3.329344 -1.190626,0 -1.962328,1.003213 -0.771703,0.992189 -0.771703,2.590714 v 6.438198 H 69.565793 V 93.716463 h 1.807987 v 1.785939 h 0.0441 q 1.20165,-2.050523 3.505732,-2.050523 1.157554,0 2.01745,0.650435 0.859897,0.639411 1.179602,1.686721 1.256772,-2.337156 3.748268,-2.337156 3.726219,0 3.726219,4.597141 z"
         style="font-family:Ebrima;-inkscape-font-specification:Ebrima"
         id="path16408" /><path
         d="m 94.249239,104.89512 c -0.426274,0.23519 -0.988514,0.35278 -1.686721,0.35278 -1.977027,0 -2.965541,-1.10243 -2.965541,-3.3073 v -6.680733 h -1.94028 v -1.543404 h 1.94028 V 74.666 l 1.807988,4.6e-4 v 19.050003 h 2.844274 v 1.543404 h -2.844274 v 6.361033 c 0,0.757 0.128617,1.29719 0.385851,1.62057 0.257234,0.32338 0.683508,0.48507 1.278821,0.48507 0.455671,0 0.848872,-0.12494 1.179602,-0.37482 z"
         style="font-family:Ebrima;-inkscape-font-specification:Ebrima"
         id="path16410" /><path
         d="m 102.55055,95.5465 q -0.47405,-0.363803 -1.36702,-0.363803 -1.15755,0 -1.940277,1.091408 -0.771702,1.091407 -0.771702,2.976565 v 5.75469 H 96.663563 V 93.716463 h 1.807988 v 2.326131 h 0.0441 q 0.385852,-1.190626 1.179602,-1.852085 0.793747,-0.672484 1.774917,-0.672484 0.70555,0 1.08038,0.154341 z"
         style="font-family:Ebrima;-inkscape-font-specification:Ebrima"
         id="path16412" /><path
         d="m 113.58589,99.81291 h -7.97058 q 0.0441,1.88516 1.01423,2.91042 0.97014,1.02526 2.66789,1.02526 1.90721,0 3.50573,-1.25677 v 1.69774 q -1.48828,1.08039 -3.93568,1.08039 -2.39228,0 -3.75929,-1.53238 -1.36702,-1.54341 -1.36702,-4.332559 0,-2.634812 1.48829,-4.28846 1.4993,-1.664672 3.71519,-1.664672 2.21589,0 3.42856,1.433162 1.21268,1.433161 1.21268,3.979778 z m -1.85209,-1.53238 q -0.011,-1.565453 -0.76068,-2.436374 -0.73862,-0.870921 -2.06154,-0.870921 -1.27882,0 -2.17179,0.915018 -0.89297,0.915019 -1.10243,2.392277 z"
         style="font-family:Ebrima;-inkscape-font-specification:Ebrima"
         id="path16414" /><path
         d="m 125.69059,105.00536 h -1.80799 v -6.438198 q 0,-3.593927 -2.62379,-3.593927 -1.35599,0 -2.24896,1.025262 -0.88194,1.014237 -0.88194,2.568665 v 6.438198 h -1.80799 V 93.716463 h 1.80799 v 1.874134 h 0.0441 q 1.27882,-2.138718 3.70417,-2.138718 1.85208,0 2.83325,1.201651 0.98116,1.190626 0.98116,3.450611 z"
         style="font-family:Ebrima;-inkscape-font-specification:Ebrima"
         id="path16416" /><path
         d="m 136.96847,94.234606 -6.68074,9.227354 h 15.48942 l 3.05053,-11.38734 4.95587,18.49906 1.90723,-7.11172 h 10.50464 a 0.69476979,0.69476979 44.990162 0 1 0.69477,0.69453 l 4e-5,0.1254 a 0.72322165,0.72322165 134.99016 0 1 -0.72322,0.72347 h -9.29388 l -3.09003,11.53224 -4.95478,-18.497544 -1.86674,6.965304 h -19.27076 v -0.56224 l 6.68074,-9.183253 h -6.05235 l -0.0599,-1.543404 h 8.70921 z"
         style="font-family:Ebrima;-inkscape-font-specification:Ebrima"
         id="path16418" /></g><path
       style="fill:none;stroke:#88ff00;stroke-width:1.8;stroke-linecap:round;stroke-linejoin:miter;stroke-dasharray:none;stroke-opacity:1"
       id="path4122"
       d="m 93.928558,87.305379 a 4.3381453,4.3381453 0 0 1 4.338146,4.338145" /><path
       style="fill:none;stroke:#89ff00;stroke-width:1.8;stroke-linecap:round;stroke-linejoin:miter;stroke-dasharray:none;stroke-opacity:1"
       id="path4122-9"
       d="m 93.909714,83.384157 a 8.2313519,8.2313519 0 0 1 8.231356,8.231352" /><path
       style="fill:none;stroke:#88ff00;stroke-width:1.8;stroke-linecap:round;stroke-linejoin:miter;stroke-dasharray:none;stroke-opacity:1"
       id="path4122-9-6"
       d="M 93.881897,79.588268 A 12.041134,12.041134 0 0 1 105.92303,91.629402" /></g></svg>
